<?xml version="1.0" standalone="no"?><!DOCTYPE svg PUBLIC "-//W3C//DTD SVG 1.1//EN" "http://www.w3.org/Graphics/SVG/1.1/DTD/svg11.dtd"><svg t="1683292781960" class="icon" viewBox="0 0 1102 1024" version="1.1" xmlns="http://www.w3.org/2000/svg" p-id="24297" xmlns:xlink="http://www.w3.org/1999/xlink" width="215.234375" height="200"><path d="M472.615385 39.384615a196.923077 196.923077 0 1 1 0 393.846154 196.923077 196.923077 0 0 1 0-393.846154z m0 59.076923a137.846154 137.846154 0 1 0 0 275.692308 137.846154 137.846154 0 0 0 0-275.692308zM728.615385 482.461538a29.538462 29.538462 0 0 1 4.01723 58.801231l-4.01723 0.275693h-472.615385a147.692308 147.692308 0 0 0-7.876923 295.187692l7.876923 0.196923H472.615385a29.538462 29.538462 0 0 1 4.01723 58.801231L472.615385 896H256a206.769231 206.769231 0 0 1-8.507077-413.380923l8.507077-0.157539h472.615385z" fill="#000000" p-id="24298"></path><path d="M950.232615 546.225231l-2.008615-1.890462c-46.08-43.126154-120.595692-43.126154-166.675692 0l-106.259693 99.918769a106.614154 106.614154 0 0 0 0 156.829539l1.969231 1.811692c3.780923 3.544615 7.876923 6.813538 12.012308 9.846154l38.872615-36.588308a61.558154 61.558154 0 0 1-12.681846-9.176615l-1.969231-1.811692a57.659077 57.659077 0 0 1 0-84.952616l106.338462-99.958154a66.717538 66.717538 0 0 1 90.190769 0l1.969231 1.851077c24.930462 23.433846 24.930462 61.44 0 84.913231l-48.009846 45.292308c8.349538 19.416615 12.288 40.054154 11.894154 60.652308l74.358153-69.907693a106.535385 106.535385 0 0 0 0-156.790154v-0.039384z m-130.835692 147.495384a115.003077 115.003077 0 0 0-12.091077-9.846153l-38.872615 36.548923c4.568615 2.56 8.861538 5.553231 12.760615 9.216l1.969231 1.851077c24.930462 23.473231 24.930462 61.44 0 84.91323l-106.259692 99.958154a66.875077 66.875077 0 0 1-90.308923 0l-1.969231-1.890461a57.580308 57.580308 0 0 1 0-84.913231l48.049231-45.174154a146.825846 146.825846 0 0 1-11.894154-60.652308l-74.358154 69.828923a106.614154 106.614154 0 0 0 0 156.868923l1.969231 1.851077c46.08 43.126154 120.556308 43.126154 166.715077 0l106.259692-99.958153a106.653538 106.653538 0 0 0 0-156.829539l-1.969231-1.811692z" fill="#000000" p-id="24299"></path></svg>